<svg width="28" height="28" viewBox="0 0 28 28" fill="none" xmlns="http://www.w3.org/2000/svg">
<path d="M27.5805 13.0483L13.2082 0.153371C13.0979 0.0550559 12.9571 0 12.8088 0H9.44206C9.16055 0 9.0312 0.361798 9.24424 0.550562L22.5666 12.5056H0.304337C0.136952 12.5056 0 12.6472 0 12.8202V15.1798C0 15.3528 0.136952 15.4944 0.304337 15.4944H22.5628L9.24043 27.4494C9.0274 27.6421 9.15674 28 9.43825 28H12.9191C12.9914 28 13.0637 27.9725 13.1169 27.9214L27.5805 14.9517C27.7122 14.8333 27.8178 14.6871 27.8902 14.5229C27.9626 14.3587 28 14.1804 28 14C28 13.8196 27.9626 13.6413 27.8902 13.4771C27.8178 13.3129 27.7122 13.1667 27.5805 13.0483Z" fill="black"/>
</svg>
