<svg width="50" height="50" viewBox="0 0 50 50" fill="none" xmlns="http://www.w3.org/2000/svg">
<path d="M25 50C11.1922 50 0 38.8078 0 25C0 11.1922 11.1922 0 25 0C38.8078 0 50 11.1922 50 25C50 38.8078 38.8078 50 25 50ZM26.6844 30.2438C28.1031 32.4656 28.7859 37.1188 28.6656 38.7859C47.3594 32.3594 41.5031 11.8234 29.0406 10.9375C29.0406 15.5391 27.9812 19.2531 26.6844 19.2531C31.7891 19.5656 34.6219 27.7953 26.6844 30.2438ZM9.375 27.8125C18.6781 27.8125 26.2078 20.2766 26.2078 10.9531H17.5187C17.5344 15.5203 13.8984 19.2531 9.39219 19.2703H9.375V27.8125ZM20.7609 26.2656C18.4062 28.3859 17.0906 29.4797 10.6391 30.5203C14.4453 30.5203 17.5187 34.3406 17.5187 39.0625H26.2062C26.2062 37.6391 25.9172 30.5031 20.7609 26.2656Z" fill="#9747FF"/>
</svg>
